<svg width="70" height="36" viewBox="0 0 70 36" fill="none" xmlns="http://www.w3.org/2000/svg">
<path d="M37.7502 1.24849C37.457 0.793025 36.7911 0.793025 36.498 1.24849L32.6643 7.2051C32.3454 7.70059 32.7011 8.3526 33.2904 8.3526H34.569C34.7334 8.3526 34.8668 8.48594 34.8668 8.65042V25.2906C34.8668 25.4551 35.0001 25.5885 35.1646 25.5885H39.1662C39.3307 25.5885 39.464 25.4551 39.464 25.2906V8.65042C39.464 8.48594 39.5973 8.3526 39.7618 8.3526H40.9578C41.547 8.3526 41.9028 7.70059 41.5839 7.2051L37.7502 1.24849Z" fill="white"/>
<path d="M2.88454 25.6337C3.82602 25.8449 4.88268 25.9505 6.05452 25.9505C8.268 25.9505 9.91058 25.5633 10.9823 24.789C12.054 24.0047 12.5898 22.8131 12.5898 21.2142V21.0785C12.5898 20.1734 12.4145 19.4494 12.064 18.9064C11.7134 18.3533 11.1575 17.9059 10.3963 17.564C9.63515 17.212 8.63358 16.9003 7.39162 16.6288C6.59036 16.4377 5.97439 16.2668 5.54372 16.1159C5.12306 15.9651 4.8326 15.8042 4.67235 15.6333C4.5121 15.4623 4.43197 15.2562 4.43197 15.0148V14.9696C4.43197 14.7484 4.49707 14.5623 4.62728 14.4115C4.7675 14.2607 5.00287 14.145 5.33339 14.0646C5.67392 13.9841 6.13965 13.9439 6.73058 13.9439C7.70211 13.9439 8.62857 14.0495 9.50995 14.2607C10.2093 14.4263 10.8563 14.6261 11.4508 14.8598C11.6647 14.9439 11.8977 14.7733 11.8729 14.5448L11.5562 11.6215C11.545 11.5182 11.481 11.4278 11.386 11.3857C10.7934 11.1234 10.0779 10.8952 9.23953 10.7009C8.3281 10.4898 7.30148 10.3842 6.15969 10.3842C4.1365 10.3842 2.60409 10.7512 1.56246 11.4853C0.520819 12.2093 0 13.3054 0 14.7735V14.8942C0 15.6886 0.150236 16.3774 0.450709 16.9606C0.761197 17.5338 1.27701 18.0215 1.99814 18.4237C2.71928 18.8159 3.69581 19.1578 4.92775 19.4494C5.74904 19.6405 6.38504 19.8064 6.83575 19.9472C7.29647 20.088 7.61698 20.2489 7.79726 20.4299C7.98756 20.6008 8.08271 20.822 8.08271 21.0935V21.1539C8.08271 21.546 7.89742 21.8377 7.52684 22.0287C7.16627 22.2097 6.5503 22.3002 5.67893 22.3002C4.58721 22.3002 3.57061 22.1745 2.62913 21.9231C1.88059 21.713 1.18379 21.4834 0.538734 21.2344C0.328291 21.1531 0.102592 21.3209 0.125208 21.5454L0.447714 24.746C0.458796 24.8559 0.529672 24.951 0.632877 24.9906C1.2694 25.2347 2.01996 25.449 2.88454 25.6337Z" fill="white"/>
<path d="M12.0717 10.7613C11.8838 10.7613 11.7429 10.9331 11.7797 11.1174L14.6204 25.3489C14.6482 25.4882 14.7705 25.5885 14.9125 25.5885H20.979C21.1256 25.5885 21.2503 25.4818 21.2732 25.337L22.7209 16.1461L22.9745 14.5902C22.9842 14.5307 23.0356 14.4869 23.096 14.4869C23.1568 14.4869 23.2085 14.5312 23.2177 14.5913L23.457 16.1461L24.9048 25.337C24.9276 25.4818 25.0524 25.5885 25.199 25.5885H31.2354C31.3774 25.5885 31.4997 25.4882 31.5275 25.3489L34.3682 11.1174C34.405 10.9331 34.2641 10.7613 34.0762 10.7613H30.0811C29.9347 10.7613 29.8101 10.8676 29.787 11.0121L27.9993 22.2041C27.9877 22.2768 27.9249 22.3304 27.8512 22.3304C27.7777 22.3304 27.715 22.2771 27.7032 22.2046L25.9317 11.373C25.9082 11.229 25.7837 11.1233 25.6378 11.1233H20.5258C20.3796 11.1233 20.255 11.2294 20.2317 11.3738L18.4906 22.1971C18.4783 22.2739 18.412 22.3304 18.3342 22.3304C18.2562 22.3304 18.1898 22.2737 18.1776 22.1967L16.4057 11.0125C16.3828 10.8678 16.258 10.7613 16.1115 10.7613H12.0717Z" fill="white"/>
<path fill-rule="evenodd" clip-rule="evenodd" d="M47.843 25.498C48.4439 25.7896 49.1851 25.9354 50.0665 25.9354C51.8893 25.9354 53.2415 25.3521 54.1228 24.1857C55.0142 23.0192 55.4599 21.2947 55.4599 19.012V17.202C55.4599 14.9394 55.0142 13.245 54.1228 12.1188C53.2415 10.9825 51.9394 10.4143 50.2167 10.4143C49.2552 10.4143 48.4639 10.5752 47.843 10.897C47.222 11.2087 46.7362 11.6361 46.3857 12.1791C46.0464 12.6949 45.801 13.2719 45.6493 13.9102C45.6405 13.9475 45.6073 13.9741 45.5689 13.9741C45.5224 13.9741 45.4851 13.9354 45.4869 13.8889L45.5928 11.0703C45.5992 10.9015 45.4641 10.7613 45.2952 10.7613H41.3351C41.1706 10.7613 41.0373 10.8946 41.0373 11.0591V27.3496C41.0373 27.5141 40.9039 27.6474 40.7394 27.6474H39.5724C38.9832 27.6474 38.6275 28.2994 38.9464 28.7949L42.7801 34.7515C43.0732 35.207 43.7391 35.207 44.0322 34.7515L47.8659 28.7949C48.1848 28.2994 47.8291 27.6474 47.2399 27.6474H45.9023C45.7378 27.6474 45.6045 27.5141 45.6045 27.3496V25.7393L45.505 22.4578C45.5037 22.4129 45.5398 22.3756 45.5848 22.3756C45.6225 22.3756 45.655 22.4021 45.6632 22.4389C45.8147 23.1268 46.0605 23.7342 46.4007 24.2611C46.7613 24.7941 47.242 25.2063 47.843 25.498ZM45.5444 19.2684C45.5644 19.8818 45.6796 20.3997 45.8899 20.822C46.1102 21.2444 46.4207 21.5712 46.8214 21.8025C47.232 22.0237 47.7178 22.1343 48.2787 22.1343C49.12 22.1343 49.756 21.8879 50.1867 21.3952C50.6273 20.8924 50.8477 20.1483 50.8477 19.1628V17.0511C50.8477 16.0657 50.6324 15.3266 50.2017 14.8338C49.781 14.3411 49.15 14.0947 48.3087 14.0947C47.838 14.0947 47.4073 14.1852 47.0167 14.3662C46.6361 14.5472 46.3106 14.7886 46.0401 15.0903C45.8413 15.3129 45.6834 15.5619 45.5663 15.8372C45.5515 15.8722 45.5444 15.9099 45.5444 15.9479V19.2684Z" fill="white"/>
<path fill-rule="evenodd" clip-rule="evenodd" d="M63.8854 25.9655C61.2012 25.9655 59.218 25.3672 57.936 24.1706C56.654 22.9639 56.013 21.2092 56.013 18.9064V17.3679C56.013 15.0953 56.6139 13.3556 57.8158 12.149C59.0177 10.9322 60.7655 10.3238 63.0591 10.3238C64.6015 10.3238 65.8835 10.5903 66.9051 11.1233C67.9368 11.6462 68.708 12.3953 69.2188 13.3707C69.7396 14.3461 70 15.5176 70 16.8852V17.383C70 17.7651 69.98 18.1573 69.9399 18.5595C69.917 18.8589 69.8853 19.1437 69.8448 19.4138C69.8234 19.5568 69.6992 19.6606 69.5546 19.6606H60.74C60.5716 19.6606 60.4352 19.8005 60.4561 19.9676C60.4844 20.1947 60.5358 20.4142 60.6102 20.6259C60.7404 20.9678 60.9608 21.2695 61.2713 21.531C61.5918 21.7824 62.0275 21.9835 62.5783 22.1343C63.1392 22.2751 63.8503 22.3455 64.7117 22.3455C65.6231 22.3455 66.4995 22.26 67.3408 22.0891C68.0162 21.9437 68.6691 21.7595 69.2993 21.5365C69.5101 21.4618 69.7308 21.6311 69.7067 21.8534L69.4013 24.6752C69.3905 24.7745 69.3309 24.8622 69.2411 24.9061C68.591 25.2241 67.8324 25.4767 66.9652 25.6639C66.0338 25.865 65.0071 25.9655 63.8854 25.9655ZM65.7483 16.5986C65.7483 16.7154 65.6535 16.8098 65.5367 16.8098H60.5809C60.4809 16.8098 60.3999 16.7288 60.3999 16.6288C60.3999 15.7137 60.6102 15.0098 61.0309 14.5171C61.4616 14.0143 62.1376 13.7629 63.0591 13.7629C63.6801 13.7629 64.1858 13.8735 64.5765 14.0947C64.9771 14.316 65.2726 14.6377 65.4629 15.0601C65.6532 15.4724 65.7483 15.9852 65.7483 16.5986Z" fill="white"/>
</svg>
