<svg width="109" height="53" viewBox="0 0 109 53" fill="none" xmlns="http://www.w3.org/2000/svg">
<path fill-rule="evenodd" clip-rule="evenodd" d="M58.5223 0.529552C58.0679 -0.176518 57.0356 -0.176517 56.5811 0.529553L50.638 9.76353C50.1436 10.5317 50.6951 11.5425 51.6085 11.5425H53.5906C53.8456 11.5425 54.0523 11.7492 54.0523 12.0042V37.7999C54.0523 38.0549 54.259 38.2616 54.514 38.2616H60.7175C60.9725 38.2616 61.1792 38.0549 61.1792 37.7999V12.0042C61.1792 11.7492 61.3859 11.5425 61.6409 11.5425H63.4949C64.4084 11.5425 64.9599 10.5317 64.4655 9.76353L58.5223 0.529552ZM4.47176 38.3318C5.93129 38.6592 7.56939 38.8228 9.38604 38.8228C12.8175 38.8228 15.3639 38.2227 17.0253 37.0224C18.6867 35.8064 19.5174 33.9592 19.5174 31.4806V31.2702C19.5174 29.8672 19.2456 28.7448 18.7022 27.903C18.1588 27.0457 17.297 26.352 16.117 25.822C14.9369 25.2764 13.3842 24.7931 11.4589 24.3722C10.2167 24.076 9.26182 23.811 8.59416 23.5772C7.94203 23.3434 7.49175 23.094 7.24332 22.829C6.99489 22.564 6.87067 22.2444 6.87067 21.8703V21.8001C6.87067 21.4572 6.9716 21.1688 7.17345 20.935C7.39083 20.7011 7.75571 20.5219 8.2681 20.3972C8.79601 20.2724 9.51802 20.2101 10.4341 20.2101C11.9402 20.2101 13.3765 20.3738 14.7428 20.7011C15.827 20.958 16.83 21.2676 17.7517 21.63C18.0832 21.7603 18.4444 21.4958 18.406 21.1417L17.915 16.6098C17.8976 16.4497 17.7984 16.3096 17.6511 16.2444C16.7324 15.8377 15.6233 15.4839 14.3236 15.1828C12.9107 14.8554 11.3191 14.6917 9.54907 14.6917C6.41263 14.6917 4.03701 15.2607 2.4222 16.3987C0.807401 17.5211 0 19.2202 0 21.4961V21.6832C0 22.9147 0.232904 23.9825 0.698712 24.8867C1.18005 25.7752 1.97969 26.5312 3.09763 27.1548C4.21557 27.7627 5.72944 28.2928 7.63926 28.7448C8.91247 29.041 9.89843 29.2982 10.5971 29.5165C11.3114 29.7347 11.8082 29.9841 12.0877 30.2647C12.3827 30.5297 12.5302 30.8727 12.5302 31.2936V31.3871C12.5302 31.995 12.243 32.4471 11.6685 32.7433C11.1095 33.0239 10.1546 33.1642 8.80378 33.1642C7.11134 33.1642 5.53536 32.9693 4.07582 32.5796C2.91539 32.2539 1.83517 31.898 0.835171 31.5119C0.508932 31.3859 0.159044 31.6461 0.194106 31.994L0.694069 36.9556C0.711249 37.1261 0.821126 37.2735 0.981121 37.3348C1.9679 37.7132 3.13144 38.0455 4.47176 38.3318ZM18.7142 15.2763C18.4229 15.2763 18.2044 15.5427 18.2614 15.8284L22.6653 37.8903C22.7084 38.1062 22.8979 38.2616 23.1181 38.2616H32.5227C32.75 38.2616 32.9434 38.0963 32.9788 37.8718L35.2231 23.624L35.6162 21.2121C35.6313 21.1197 35.7111 21.0519 35.8046 21.0519C35.8989 21.0519 35.979 21.1206 35.9933 21.2137L36.3643 23.624L38.6087 37.8718C38.644 38.0963 38.8375 38.2616 39.0648 38.2616H48.4228C48.6429 38.2616 48.8325 38.1062 48.8755 37.8903L53.2794 15.8284C53.3365 15.5427 53.118 15.2763 52.8267 15.2763H46.6333C46.4064 15.2763 46.2132 15.4411 46.1774 15.6652L43.406 33.0151C43.388 33.1279 43.2907 33.2109 43.1764 33.2109C43.0625 33.2109 42.9653 33.1284 42.9469 33.0159L40.2007 16.2247C40.1642 16.0014 39.9713 15.8375 39.7451 15.8375H31.8201C31.5935 15.8375 31.4003 16.0021 31.3643 16.2259L28.6652 33.0042C28.646 33.1234 28.5432 33.2109 28.4226 33.2109C28.3017 33.2109 28.1988 33.123 28.1799 33.0037L25.433 15.6658C25.3974 15.4415 25.2041 15.2763 24.977 15.2763H18.7142ZM74.1687 38.1213C75.1003 38.5734 76.2493 38.7994 77.6157 38.7994C80.4416 38.7994 82.5377 37.8953 83.9041 36.087C85.286 34.2788 85.9769 31.6053 85.9769 28.0667V25.2608C85.9769 21.7534 85.286 19.1267 83.9041 17.3808C82.5377 15.6193 80.5192 14.7385 77.8486 14.7385C76.358 14.7385 75.1314 14.9879 74.1687 15.4868C73.206 15.97 72.453 16.6325 71.9095 17.4743C71.3836 18.2739 71.0031 19.1684 70.768 20.1578C70.7542 20.2157 70.7028 20.2569 70.6433 20.2569C70.5712 20.2569 70.5135 20.1969 70.5162 20.1248L70.6804 15.7553C70.6903 15.4937 70.4808 15.2763 70.219 15.2763H64.0798C63.8248 15.2763 63.6181 15.483 63.6181 15.738V40.9918C63.6181 41.2468 63.4114 41.4535 63.1564 41.4535H61.3473C60.4338 41.4535 59.8824 42.4643 60.3767 43.2324L66.3199 52.4664C66.7744 53.1725 67.8066 53.1725 68.2611 52.4664L74.2043 43.2324C74.6987 42.4643 74.1472 41.4535 73.2337 41.4535H71.1601C70.9051 41.4535 70.6984 41.2468 70.6984 40.9918V38.4955L70.5443 33.4085C70.5422 33.3388 70.5982 33.2811 70.6679 33.2811C70.7264 33.2811 70.7768 33.3221 70.7894 33.3792C71.0244 34.4456 71.4055 35.3871 71.9328 36.204C72.4918 37.0301 73.2371 37.6693 74.1687 38.1213ZM70.6053 28.4642C70.6363 29.4151 70.8149 30.2179 71.1409 30.8727C71.4825 31.5274 71.9639 32.034 72.5849 32.3925C73.2215 32.7355 73.9746 32.907 74.8441 32.907C76.1484 32.907 77.1343 32.5251 77.802 31.7612C78.4852 30.9818 78.8268 29.8282 78.8268 28.3006V25.027C78.8268 23.4993 78.493 22.3535 77.8253 21.5897C77.1732 20.8258 76.195 20.4439 74.8907 20.4439C74.1609 20.4439 73.4933 20.5842 72.8877 20.8648C72.2977 21.1454 71.7931 21.5195 71.3738 21.9872C71.0657 22.3323 70.8208 22.7183 70.6393 23.1452C70.6163 23.1994 70.6053 23.2578 70.6053 23.3168V28.4642ZM99.0385 38.8462C94.8773 38.8462 91.8029 37.9187 89.8155 36.0637C87.828 34.193 86.8343 31.4728 86.8343 27.903V25.518C86.8343 21.995 87.7659 19.2982 89.6292 17.4275C91.4924 15.5413 94.2018 14.5982 97.7575 14.5982C100.149 14.5982 102.136 15.0113 103.72 15.8375C105.319 16.6481 106.515 17.8094 107.307 19.3215C108.114 20.8336 108.518 22.6497 108.518 24.7697V25.5414C108.518 26.1337 108.487 26.7417 108.425 27.3652C108.389 27.8294 108.34 28.2709 108.277 28.6896C108.244 28.9113 108.051 29.0722 107.827 29.0722H106.771H101.787H94.1623C93.9012 29.0722 93.6899 29.289 93.7222 29.5481C93.7661 29.9002 93.8458 30.2404 93.9612 30.5687C94.163 31.0987 94.5046 31.5664 94.986 31.9717C95.4828 32.3614 96.1582 32.6731 97.0122 32.907C97.8817 33.1252 98.9841 33.2343 100.319 33.2343C101.732 33.2343 103.091 33.1018 104.395 32.8368C105.442 32.6116 106.454 32.326 107.431 31.9802C107.758 31.8645 108.1 32.1269 108.063 32.4715L107.589 36.8459C107.573 36.9999 107.48 37.1358 107.341 37.2039C106.333 37.6968 105.157 38.0883 103.813 38.3786C102.369 38.6903 100.778 38.8462 99.0385 38.8462ZM101.926 24.3255C101.926 24.5065 101.78 24.6528 101.599 24.6528H93.9157C93.7607 24.6528 93.6351 24.5272 93.6351 24.3722C93.6351 22.9537 93.9612 21.8625 94.6133 21.0986C95.281 20.3192 96.329 19.9295 97.7575 19.9295C98.7202 19.9295 99.5043 20.101 100.11 20.4439C100.731 20.7869 101.189 21.2857 101.484 21.9404C101.779 22.5795 101.926 23.3746 101.926 24.3255Z" fill="black"/>
</svg>
